<svg width="355.3249267578125px" height="122.021240234375px" xmlns="http://www.w3.org/2000/svg" viewBox="72.33753662109376 13.9893798828125 355.3249267578125 122.021240234375" style="background: rgba(0, 0, 0, 0);" preserveAspectRatio="xMidYMid"><defs><filter id="editing-vr"><feFlood flood-color="#f00" flood-opacity="0.7" result="c1"></feFlood><feFlood flood-color="#00f" flood-opacity="0.7" result="c3"></feFlood><feComposite operator="in" in="c1" in2="SourceAlpha" result="text-c1"></feComposite><feComposite operator="in" in="c3" in2="SourceAlpha" result="text-c3"></feComposite><feOffset in="text-c1" dx="5" dy="-1" result="text1"></feOffset><feOffset in="text-c3" dx="-5" dy="1" result="text3"></feOffset><feBlend in="SourceGraphic" in2="text1" mode="multiply" result="text4"></feBlend><feBlend in="text4" in2="text3" mode="multiply"></feBlend></filter></defs><g filter="url(#editing-vr)"><g transform="translate(128.78811860084534, 97.22281265258789)"><path d="M42.62-26.56L42.62-26.56L42.62-26.56Q42.62 0.70 13.06 0.70L13.06 0.70L13.06 0.70Q8.32 0.70 0.51-0.45L0.51-0.45L7.68-38.27L7.68-38.27Q8.19-40.83 8.51-42.30L8.51-42.30L8.51-42.30Q18.24-43.01 22.56-43.01L22.56-43.01L22.56-43.01Q26.88-43.01 30.85-42.11L30.85-42.11L30.85-42.11Q34.82-41.22 37.44-39.23L37.44-39.23L37.44-39.23Q42.62-35.33 42.62-26.56ZM29.44-28.93L29.44-28.93L29.44-28.93Q29.44-38.46 22.59-38.46L22.59-38.46L21.95-38.46L21.95-38.46Q21.63-38.46 21.31-38.40L21.31-38.40L14.72-4.03L14.72-4.03Q14.98-3.90 15.23-3.90L15.23-3.90L15.74-3.90L15.74-3.90Q18.11-3.90 20.58-5.38L20.58-5.38L20.58-5.38Q23.04-6.85 24.96-9.86L24.96-9.86L24.96-9.86Q29.44-16.83 29.44-28.93ZM73.22-9.86L73.22-9.86L73.22-9.86Q74.43-8.32 74.43-5.82L74.43-5.82L74.43-5.82Q74.43-2.37 71.87-0.54L71.87-0.54L71.87-0.54Q69.31 1.28 65.28 1.28L65.28 1.28L65.28 1.28Q62.98 1.28 59.46 0.77L59.46 0.77L59.46 0.77Q52.54-0.32 50.43-0.32L50.43-0.32L50.43-0.32Q48.32-0.32 47.49-0.22L47.49-0.22L47.49-0.22Q46.66-0.13 45.31 0L45.31 0L53.18-42.24L80.77-42.24L80.77-42.24Q80.77-38.34 78.88-36.29L78.88-36.29L78.88-36.29Q76.99-34.24 73.28-34.24L73.28-34.24L73.28-34.24Q69.57-34.24 65.79-35.97L65.79-35.97L63.81-24.77L75.20-24.77L75.20-24.77Q75.20-21.38 73.54-19.49L73.54-19.49L73.54-19.49Q71.87-17.60 69.09-17.60L69.09-17.60L69.09-17.60Q66.30-17.60 64.58-18.24L64.58-18.24L64.58-18.24Q62.85-18.88 62.66-19.07L62.66-19.07L60.35-6.98L60.35-6.98Q61.89-6.78 64.77-6.78L64.77-6.78L64.77-6.78Q69.70-6.78 73.22-9.86ZM79.68-0.32L79.68-0.32L87.74-42.24L87.74-42.24Q95.30-42.88 100.16-42.88L100.16-42.88L100.16-42.88Q105.02-42.88 108.16-42.46L108.16-42.46L108.16-42.46Q111.30-42.05 113.41-40.96L113.41-40.96L113.41-40.96Q117.63-38.91 117.63-33.28L117.63-33.28L117.63-33.28Q117.63-30.02 114.82-27.26L114.82-27.26L114.82-27.26Q112.19-24.77 109.31-24.19L109.31-24.19L109.31-24.19Q112.38-23.68 114.56-21.38L114.56-21.38L114.56-21.38Q116.86-18.94 116.86-15.17L116.86-15.17L116.86-15.17Q116.86-7.87 111.42-3.62L111.42-3.62L111.42-3.62Q105.98 0.64 95.30 0.64L95.30 0.64L95.30 0.64Q87.94 0.64 79.68-0.32ZM97.09-20.61L93.89-4.03L93.89-4.03Q94.46-3.97 94.59-3.97L94.59-3.97L95.17-3.97L95.17-3.97Q100.42-3.97 102.66-7.42L102.66-7.42L102.66-7.42Q104.32-10.11 104.32-15.04L104.32-15.04L104.32-15.04Q104.32-17.66 102.62-19.07L102.62-19.07L102.62-19.07Q100.93-20.48 97.09-20.61L97.09-20.61ZM106.82-33.22L106.82-33.22L106.82-33.22Q106.82-38.53 101.70-38.53L101.70-38.53L101.12-38.53L101.12-38.53Q100.86-38.53 100.48-38.46L100.48-38.46L97.92-24.96L98.56-24.96L98.56-24.96Q106.82-25.15 106.82-33.22ZM147.84-9.86L147.84-9.86L147.84-9.86Q149.06-8.32 149.06-5.34L149.06-5.34L149.06-5.34Q149.06-2.37 146.78-0.54L146.78-0.54L146.78-0.54Q144.51 1.28 140.54 1.28L140.54 1.28L140.54 1.28Q138.24 1.28 134.66 0.77L134.66 0.77L134.66 0.77Q127.62-0.32 125.60-0.32L125.60-0.32L125.60-0.32Q123.58-0.32 122.75-0.22L122.75-0.22L122.75-0.22Q121.92-0.13 120.58 0L120.58 0L128.32-42.24L142.34-42.24L135.94-7.04L135.94-7.04Q136.77-6.91 137.54-6.91L137.54-6.91L139.14-6.91L139.14-6.91Q144.51-6.91 147.84-9.86ZM166.59 0L152.64 0L160.77-42.24L174.85-42.24L166.59 0ZM205.38-33.92L205.38-33.92L205.38-33.92Q200.19-33.92 196.42-35.65L196.42-35.65L194.37-25.28L206.72-25.28L206.72-25.28Q206.72-21.89 205.02-19.74L205.02-19.74L205.02-19.74Q203.33-17.60 200.26-17.60L200.26-17.60L200.26-17.60Q196.93-17.60 193.86-18.82L193.86-18.82L193.86-18.82Q193.22-19.07 193.15-19.14L193.15-19.14L189.50 0L175.55 0L183.68-42.24L212.22-42.24L212.22-42.24Q212.22-38.34 210.40-36.13L210.40-36.13L210.40-36.13Q208.58-33.92 205.38-33.92ZM215.74-31.17L215.74-31.17L215.74-31.17Q213.57-32.83 213.57-36.38L213.57-36.38L213.57-36.38Q213.57-39.94 215.90-41.79L215.90-41.79L215.90-41.79Q218.24-43.65 222.27-43.65L222.27-43.65L222.27-43.65Q224.83-43.65 230.91-42.75L230.91-42.75L235.26-42.11L235.26-42.11Q237.44-41.86 239.71-41.86L239.71-41.86L239.71-41.86Q241.98-41.86 243.52-42.82L243.52-42.82L243.52-42.82Q245.82-40.77 245.82-37.82L245.82-37.82L245.82-37.82Q245.82-34.88 243.20-32.77L243.20-32.77L243.20-32.77Q240.51-30.53 237.06-30.53L237.06-30.53L237.06-30.53Q235.39-30.53 232.70-30.98L232.70-30.98L232.70-30.98Q229.57-21.12 229.57-14.27L229.57-14.27L229.57-14.27Q229.57-7.42 233.02-3.84L233.02-3.84L233.02-3.84Q231.42-0.96 229.06 0.16L229.06 0.16L229.06 0.16Q226.69 1.28 223.14 1.28L223.14 1.28L223.14 1.28Q219.58 1.28 217.38-0.67L217.38-0.67L217.38-0.67Q215.17-2.62 215.17-6.66L215.17-6.66L215.17-6.66Q215.17-11.33 217.73-19.01L217.73-19.01L217.73-19.01Q220.29-26.62 224.13-32.45L224.13-32.45L224.13-32.45Q222.27-32.64 220.35-32.64L220.35-32.64L220.35-32.64Q216.38-32.64 215.74-31.17Z" fill="#444"></path></g></g><style>text {
  font-size: 64px;
  font-family: Arial Black;
  dominant-baseline: central;
  text-anchor: middle;
}</style></svg>